<?xml version="1.0" encoding="UTF-8" standalone="no"?>
<!DOCTYPE svg PUBLIC "-//W3C//DTD SVG 1.1//EN"
 "http://www.w3.org/Graphics/SVG/1.1/DTD/svg11.dtd">
<!-- Generated by graphviz version 2.36.0 (20140111.2315)
 -->
<!-- Title: fsm Pages: 1 -->
<svg width="320pt" height="90pt"
 viewBox="0.00 0.00 320.00 90.00" xmlns="http://www.w3.org/2000/svg" xmlns:xlink="http://www.w3.org/1999/xlink">
<g id="graph0" class="graph" transform="scale(1 1) rotate(0) translate(4 86)">
<title>fsm</title>
<polygon fill="white" stroke="none" points="-4,4 -4,-86 316,-86 316,4 -4,4"/>
<!-- start -->
<g id="node1" class="node"><title>start</title>
<text text-anchor="middle" x="27" y="-20.8" font-family="Times,serif" font-size="14.00">start</text>
</g>
<!-- 0 -->
<g id="node3" class="node"><title>0</title>
<ellipse fill="none" stroke="black" cx="119" cy="-25" rx="27" ry="25.4118"/>
<text text-anchor="middle" x="119" y="-27.8" font-family="Times,serif" font-size="14.00">¬p</text>
<text text-anchor="middle" x="119" y="-13.8" font-family="Times,serif" font-size="14.00">¬q</text>
</g>
<!-- start&#45;&gt;0 -->
<g id="edge1" class="edge"><title>start&#45;&gt;0</title>
<path fill="none" stroke="black" d="M54.0317,-25C62.6318,-25 72.3631,-25 81.5935,-25"/>
<polygon fill="black" stroke="black" points="81.715,-28.5001 91.715,-25 81.7149,-21.5001 81.715,-28.5001"/>
</g>
<!-- 1 -->
<g id="node2" class="node"><title>1</title>
<ellipse fill="none" stroke="black" cx="212" cy="-25" rx="18" ry="18"/>
<ellipse fill="none" stroke="black" cx="212" cy="-25" rx="22" ry="22"/>
<text text-anchor="middle" x="212" y="-20.8" font-family="Times,serif" font-size="14.00">1</text>
</g>
<!-- 1&#45;&gt;1 -->
<g id="edge4" class="edge"><title>1&#45;&gt;1</title>
<path fill="none" stroke="black" d="M204.317,-45.9908C203.369,-56.0872 205.93,-65 212,-65 215.889,-65 218.337,-61.3422 219.346,-56.0587"/>
<polygon fill="black" stroke="black" points="222.846,-56.1023 219.683,-45.9908 215.85,-55.868 222.846,-56.1023"/>
<text text-anchor="middle" x="212" y="-67.8" font-family="Times,serif" font-size="14.00">b</text>
</g>
<!-- 2 -->
<g id="node4" class="node"><title>2</title>
<ellipse fill="none" stroke="black" cx="294" cy="-25" rx="18" ry="18"/>
<text text-anchor="middle" x="294" y="-20.8" font-family="Times,serif" font-size="14.00">2</text>
</g>
<!-- 1&#45;&gt;2 -->
<g id="edge5" class="edge"><title>1&#45;&gt;2</title>
<path fill="none" stroke="black" d="M234.019,-25C243.708,-25 255.332,-25 265.689,-25"/>
<polygon fill="black" stroke="black" points="265.89,-28.5001 275.89,-25 265.89,-21.5001 265.89,-28.5001"/>
<text text-anchor="middle" x="255" y="-27.8" font-family="Times,serif" font-size="14.00">a</text>
</g>
<!-- 0&#45;&gt;1 -->
<g id="edge3" class="edge"><title>0&#45;&gt;1</title>
<path fill="none" stroke="black" d="M146.321,-25C156.823,-25 168.993,-25 179.924,-25"/>
<polygon fill="black" stroke="black" points="179.93,-28.5001 189.93,-25 179.93,-21.5001 179.93,-28.5001"/>
<text text-anchor="middle" x="168" y="-27.8" font-family="Times,serif" font-size="14.00">b</text>
</g>
<!-- 0&#45;&gt;0 -->
<g id="edge2" class="edge"><title>0&#45;&gt;0</title>
<path fill="none" stroke="black" d="M110.451,-49.3127C109.861,-59.4266 112.711,-68 119,-68 123.029,-68 125.646,-64.4815 126.852,-59.2934"/>
<polygon fill="black" stroke="black" points="130.344,-59.5322 127.549,-49.3127 123.361,-59.0445 130.344,-59.5322"/>
<text text-anchor="middle" x="119" y="-70.8" font-family="Times,serif" font-size="14.00">a,b</text>
</g>
<!-- 2&#45;&gt;2 -->
<g id="edge6" class="edge"><title>2&#45;&gt;2</title>
<path fill="none" stroke="black" d="M287.266,-42.0373C285.892,-51.8579 288.137,-61 294,-61 297.665,-61 299.916,-57.4289 300.753,-52.3529"/>
<polygon fill="black" stroke="black" points="304.252,-52.0307 300.734,-42.0373 297.252,-52.0439 304.252,-52.0307"/>
<text text-anchor="middle" x="294" y="-63.8" font-family="Times,serif" font-size="14.00">a,b</text>
</g>
</g>
</svg>
